<svg width="153" height="149" viewBox="0 0 153 149" fill="none" xmlns="http://www.w3.org/2000/svg">
<g filter="url(#filter0_d_24105_48)">
<ellipse cx="76.5" cy="70.5" rx="72.5" ry="70.5" fill="#04BFC8"/>
<path d="M144 70.5C144 106.544 113.912 136 76.5 136C39.088 136 9 106.544 9 70.5C9 34.4563 39.088 5 76.5 5C113.912 5 144 34.4563 144 70.5Z" stroke="#A3FBFF" stroke-width="10"/>
</g>
<path d="M83.7734 57.2267C84.7961 58.2483 85.6075 59.4614 86.1611 60.7968C86.7146 62.1322 86.9996 63.5636 86.9996 65.0092C86.9996 66.4547 86.7146 67.8861 86.1611 69.2215C85.6075 70.5569 84.7961 71.7701 83.7734 72.7917M68.2267 72.7733C67.204 71.7517 66.3926 70.5386 65.8391 69.2032C65.2855 67.8678 65.0006 66.4364 65.0006 64.9908C65.0006 63.5453 65.2855 62.1139 65.8391 60.7785C66.3926 59.4431 67.204 58.2299 68.2267 57.2083M88.9617 52.0383C92.3987 55.4763 94.3295 60.1387 94.3295 65C94.3295 69.8613 92.3987 74.5237 88.9617 77.9617M63.0384 77.9617C59.6014 74.5237 57.6707 69.8613 57.6707 65C57.6707 60.1387 59.6014 55.4763 63.0384 52.0383" stroke="white" stroke-opacity="0.5" stroke-width="2" stroke-linecap="round" stroke-linejoin="round"/>
<path d="M71.0308 87.0909V98H69.0386L64.2925 91.1339H64.2126V98H61.9062V87.0909H63.9303L68.6391 93.9517H68.735V87.0909H71.0308ZM72.9364 98V87.0909H80.1594V88.9925H75.2429V91.592H79.68V93.4936H75.2429V98H72.9364ZM91.3362 90.9102H89.0031C88.9605 90.6083 88.8735 90.3402 88.7421 90.1058C88.6107 89.8679 88.442 89.6655 88.2361 89.4986C88.0301 89.3317 87.7922 89.2038 87.5223 89.1151C87.2559 89.0263 86.9665 88.9819 86.654 88.9819C86.0894 88.9819 85.5976 89.1222 85.1785 89.4027C84.7595 89.6797 84.4346 90.0845 84.2037 90.6172C83.9729 91.1463 83.8575 91.7891 83.8575 92.5455C83.8575 93.3232 83.9729 93.9766 84.2037 94.5057C84.4381 95.0348 84.7648 95.4343 85.1839 95.7042C85.6029 95.9741 86.0876 96.109 86.6381 96.109C86.947 96.109 87.2329 96.0682 87.4957 95.9865C87.762 95.9048 87.9981 95.7859 88.2041 95.6296C88.4101 95.4698 88.5805 95.2763 88.7155 95.049C88.854 94.8217 88.9498 94.5625 89.0031 94.2713L91.3362 94.282C91.2758 94.7827 91.1249 95.2656 90.8834 95.7308C90.6455 96.1925 90.3241 96.6062 89.9193 96.9719C89.518 97.3342 89.0386 97.6218 88.4811 97.8349C87.9271 98.0444 87.3003 98.1491 86.6008 98.1491C85.6278 98.1491 84.7577 97.929 83.9907 97.4886C83.2272 97.0483 82.6235 96.4109 82.1796 95.5763C81.7393 94.7418 81.5191 93.7315 81.5191 92.5455C81.5191 91.3558 81.7428 90.3438 82.1903 89.5092C82.6377 88.6747 83.2449 88.0391 84.012 87.6023C84.779 87.1619 85.642 86.9418 86.6008 86.9418C87.2329 86.9418 87.8188 87.0305 88.3586 87.2081C88.9019 87.3857 89.3831 87.6449 89.8021 87.9858C90.2211 88.3232 90.5621 88.7369 90.8248 89.2269C91.0912 89.717 91.2616 90.2781 91.3362 90.9102Z" fill="white"/>
<defs>
<filter id="filter0_d_24105_48" x="0" y="0" width="153" height="149" filterUnits="userSpaceOnUse" color-interpolation-filters="sRGB">
<feFlood flood-opacity="0" result="BackgroundImageFix"/>
<feColorMatrix in="SourceAlpha" type="matrix" values="0 0 0 0 0 0 0 0 0 0 0 0 0 0 0 0 0 0 127 0" result="hardAlpha"/>
<feOffset dy="4"/>
<feGaussianBlur stdDeviation="2"/>
<feComposite in2="hardAlpha" operator="out"/>
<feColorMatrix type="matrix" values="0 0 0 0 0 0 0 0 0 0 0 0 0 0 0 0 0 0 0.1 0"/>
<feBlend mode="normal" in2="BackgroundImageFix" result="effect1_dropShadow_24105_48"/>
<feBlend mode="normal" in="SourceGraphic" in2="effect1_dropShadow_24105_48" result="shape"/>
</filter>
</defs>
</svg>
